<?xml version="1.0" encoding="utf-8"?>
<svg xmlns="http://www.w3.org/2000/svg" width="520" height="700" viewBox="0 0 520 700">
  <defs>
    <linearGradient id="cardBg" x1="0%" y1="0%" x2="100%" y2="100%">
      <stop offset="0%" stop-color="#230940"/>
      <stop offset="40%" stop-color="#140428"/>
      <stop offset="100%" stop-color="#080112"/>
    </linearGradient>
    <linearGradient id="goldText" x1="0%" y1="0%" x2="100%" y2="0%">
      <stop offset="0%" stop-color="#e5b869"/>
      <stop offset="50%" stop-color="#fef08a"/>
      <stop offset="100%" stop-color="#f59e0b"/>
    </linearGradient>
    <linearGradient id="crimsonGrad" x1="0%" y1="0%" x2="100%" y2="0%">
      <stop offset="0%" stop-color="#e11d48"/>
      <stop offset="100%" stop-color="#fb7185"/>
    </linearGradient>
  </defs>
  
  <!-- Outer Card Background -->
  <rect width="520" height="700" rx="32" fill="url(#cardBg)" stroke="#e5b869" stroke-width="2.5"/>
  <rect x="14" y="14" width="492" height="672" rx="22" fill="none" stroke="rgba(229,184,105,0.3)" stroke-width="1.2" stroke-dasharray="8,6"/>
  
  <!-- Top Badge -->
  <rect x="140" y="32" width="240" height="26" rx="13" fill="#17062e" stroke="#e5b869" stroke-width="1"/>
  <text x="260" y="49" font-family="'Segoe UI', Roboto, sans-serif" font-size="10" font-weight="bold" fill="#e5b869" letter-spacing="2.5" text-anchor="middle">OFFICIAL EVENT PORTAL</text>
  
  <!-- Main Title -->
  <text x="260" y="94" font-family="Georgia, serif" font-size="26" font-weight="900" fill="url(#goldText)" text-anchor="middle">RANG TARANG GARBA</text>
  <text x="260" y="118" font-family="'Segoe UI', Roboto, sans-serif" font-size="12" font-weight="bold" fill="#e2e8f0" letter-spacing="1.5" text-anchor="middle">SEASON 1 • OCT 17, 2026 • CHOMU, JAIPUR</text>
  <text x="260" y="138" font-family="'Segoe UI', Roboto, sans-serif" font-size="11" fill="#cbd5e1" text-anchor="middle">Raj Vilas Garden, Chomu, Rajasthan</text>
  
  <!-- White QR Box Frame with Luxury Gold Border -->
  <g transform="translate(85, 155)">
    <rect width="350" height="350" rx="24" fill="#ffffff" stroke="#e5b869" stroke-width="4"/>
    <g transform="translate(18, 18) scale(8.5)">
      <path fill="#ffffff" d="M0 0h39v39H0z"/><path stroke="#0d041c" d="M1 1.5h7m1 0h1m6 0h1m2 0h2m1 0h1m1 0h2m1 0h3m1 0h7M1 2.5h1m5 0h1m1 0h2m1 0h3m1 0h2m1 0h1m2 0h1m1 0h1m1 0h1m1 0h1m2 0h1m5 0h1M1 3.5h1m1 0h3m1 0h1m3 0h2m6 0h2m2 0h1m1 0h1m2 0h1m2 0h1m1 0h3m1 0h1M1 4.5h1m1 0h3m1 0h1m1 0h1m1 0h1m1 0h1m1 0h1m3 0h4m2 0h1m1 0h2m2 0h1m1 0h3m1 0h1M1 5.5h1m1 0h3m1 0h1m1 0h2m1 0h2m4 0h1m5 0h1m1 0h3m2 0h1m1 0h3m1 0h1M1 6.5h1m5 0h1m1 0h2m2 0h2m2 0h1m3 0h2m1 0h1m1 0h4m1 0h1m5 0h1M1 7.5h7m1 0h1m1 0h1m1 0h1m1 0h1m1 0h1m1 0h1m1 0h1m1 0h1m1 0h1m1 0h1m1 0h1m1 0h7M10 8.5h1m2 0h1m2 0h1m1 0h1m1 0h4m1 0h1m1 0h1M4 9.5h1m2 0h1m2 0h6m2 0h2m8 0h2m2 0h3m1 0h2M3 10.5h1m1 0h1m2 0h2m3 0h3m1 0h1m3 0h4m2 0h3m2 0h1m2 0h1m1 0h1M1 11.5h1m1 0h1m3 0h1m1 0h2m1 0h2m3 0h2m3 0h1m1 0h1m3 0h1m2 0h1m1 0h5M2 12.5h3m4 0h1m2 0h2m3 0h1m3 0h1m1 0h1m2 0h1m2 0h1m2 0h2m2 0h1M3 13.5h6m1 0h2m3 0h1m1 0h2m1 0h2m1 0h1m2 0h1m1 0h1m1 0h3m3 0h1M2 14.5h1m3 0h1m5 0h2m2 0h1m2 0h2m1 0h1m3 0h2m3 0h2m1 0h1m1 0h2M1 15.5h1m3 0h1m1 0h1m1 0h1m1 0h2m2 0h1m1 0h3m3 0h2m1 0h2m2 0h2m1 0h1m1 0h1m1 0h1M1 16.5h4m3 0h2m1 0h2m2 0h1m1 0h1m1 0h2m2 0h4m1 0h1m1 0h2m4 0h2M2 17.5h3m2 0h2m1 0h2m5 0h1m1 0h2m4 0h1m4 0h2m2 0h3M1 18.5h4m1 0h1m2 0h2m3 0h4m1 0h1m2 0h1m1 0h4m1 0h1m1 0h1m1 0h1m3 0h1M1 19.5h1m2 0h5m2 0h6m1 0h1m1 0h1m1 0h2m5 0h6m1 0h2M2 20.5h2m9 0h1m3 0h2m1 0h1m1 0h2m1 0h1m1 0h1m2 0h1m4 0h1m1 0h1M4 21.5h1m2 0h2m2 0h2m1 0h2m1 0h1m2 0h1m1 0h1m1 0h1m1 0h4m1 0h4m1 0h2M1 22.5h2m3 0h1m4 0h1m2 0h2m1 0h1m1 0h2m2 0h2m2 0h1m3 0h1m2 0h1m1 0h2M1 23.5h3m1 0h5m5 0h1m4 0h1m2 0h3m4 0h1m1 0h6M2 24.5h2m2 0h1m3 0h2m3 0h2m1 0h5m1 0h2m1 0h1m3 0h1m1 0h1m2 0h2M3 25.5h1m2 0h5m1 0h1m2 0h2m2 0h1m1 0h1m3 0h1m2 0h1m1 0h1m2 0h1m3 0h1M2 26.5h1m3 0h1m2 0h1m4 0h2m3 0h1m2 0h1m1 0h2m2 0h3m1 0h2m2 0h2M1 27.5h1m3 0h3m1 0h2m2 0h1m1 0h1m2 0h1m2 0h1m1 0h1m1 0h2m3 0h2m1 0h3m1 0h1M2 28.5h2m1 0h1m5 0h1m1 0h1m1 0h2m1 0h1m1 0h2m3 0h2m1 0h1m2 0h1m1 0h2m2 0h1M1 29.5h2m3 0h2m2 0h1m1 0h1m1 0h6m2 0h4m3 0h5M9 30.5h3m1 0h1m5 0h1m3 0h3m1 0h3m3 0h1m3 0h1M1 31.5h7m4 0h2m2 0h1m5 0h2m1 0h5m1 0h1m1 0h1m1 0h3M1 32.5h1m5 0h1m2 0h1m8 0h3m3 0h1m3 0h1m3 0h1m1 0h1M1 33.5h1m1 0h3m1 0h1m3 0h4m1 0h1m3 0h1m1 0h1m3 0h2m1 0h6m1 0h2M1 34.5h1m1 0h3m1 0h1m1 0h1m1 0h2m2 0h3m2 0h3m1 0h1m1 0h1m2 0h2m1 0h2m2 0h2M1 35.5h1m1 0h3m1 0h1m2 0h1m3 0h1m1 0h1m1 0h2m7 0h2m1 0h1m2 0h1m3 0h1M1 36.5h1m5 0h1m2 0h2m4 0h1m1 0h1m2 0h3m2 0h1m1 0h2M1 37.5h7m3 0h3m2 0h1m1 0h4m3 0h8m3 0h2"/>

    </g>
  </g>
  
  <!-- Footer Call to Action -->
  <text x="260" y="545" font-family="'Segoe UI', Roboto, sans-serif" font-size="17" font-weight="900" fill="#ffffff" text-anchor="middle">SCAN TO BOOK VIP PASSES</text>
  <rect x="70" y="562" width="380" height="34" rx="12" fill="#16082e" stroke="rgba(229,184,105,0.4)" stroke-width="1"/>
  <text x="260" y="584" font-family="'Courier New', Courier, monospace" font-size="14" font-weight="bold" fill="#e5b869" text-anchor="middle">https://rangtarang.jkmsoftwares.com</text>
  
  <text x="260" y="630" font-family="'Segoe UI', Roboto, sans-serif" font-size="11" font-weight="bold" fill="#38bdf8" text-anchor="middle">Instant Digital QR E-Ticket &amp; Red Carpet Access</text>
  <text x="260" y="652" font-family="'Segoe UI', Roboto, sans-serif" font-size="10" fill="#94a3b8" text-anchor="middle">Organized by Rang Tarang Mahotsav Committee • Tech by JKM Softwares</text>
</svg>